<svg id="siteBgSVG" class="mysvg" viewBox="0 0 2560 1809">
			<defs> 
				<filter id="turb">
					<feTurbulence id="turbwave" type="fractalNoise" baseFrequency="0.001009" numOctaves="1" result="turbulence_3" data-filterid="3"></feTurbulence>
					<feDisplacementMap xChannelSelector="R" yChannelSelector="G" in="SourceGraphic" in2="turbulence_3" scale="100"></feDisplacementMap>
				</filter>
				<clipPath id="clippath"><rect width="2560" height="1809" style="fill:none;"></rect></clipPath>
			</defs>
			<g style="clip-path:url(#clippath);" filter="url(#turb)"><g id="Mask_Group_276"><path id="Path_2685" d="M895.65,957.84c0,135.02,121.03,149.86,363.71,207.41,242.67,57.55,431.04,270.74,656.14,270.74s309.58-271.82,309.58-478.15c0-267.54-233.2-414.15-361.12-414.15s-150.83,15.01-389.96,147.83c-239.13,132.82-578.35,87.81-578.35,266.33Z" style="fill:none; stroke:#0071ff; stroke-miterlimit:10; stroke-width: 2px;"></path><path id="Path_2686" d="M1273.61,935.85c-32.09,69.2,267.75,124.63,339.24,132.1,128.51,7.49,196.97-41.24,196.97-113.57,0-93.15-101.55-187.4-247.56-111-146.01,76.4-262.14,42.12-288.65,92.47Z" style="fill:none; stroke:red; stroke-miterlimit:10;"></path><path id="Path_2687" d="M1018.81,541.99c-6.57,84.83-105.68,171.84-224.68,263.43-119,91.59-311.22,159.62-232.05-17.29,46.11-91.42-5.84-328.31,184.17-243.51,134.15,83.7,283.92-112.63,272.56-2.63Z" style="fill:none; stroke:#00aa34; stroke-miterlimit:4; stroke-width:1px;"></path><path id="Path_2688" d="M915.75,613.58c-3.23,26.56-30.26,60.36-78.96,89.81-48.7,29.45-131.76,52.96-107.25-9.73,14.65-36.75-.14-102.6,76.06-77.39,62.25,9.57,115.48-37.15,110.15-2.69Z" style="fill:none; stroke:#ff00b1; stroke-miterlimit:4; stroke-width:1px;"></path><path id="Path_2689" d="M1089.99,951.22c-55.62,89.51,178.21,131.14,415.89,185.16,289.16,67.92,544.53,85.95,544.53-161.74,0-158.93-171.52-417.4-431.55-233.22-260.03,184.18-487.99,143.31-528.87,209.81Z" style="fill:none; stroke:#1e1f21; stroke-miterlimit:10;"></path><path id="Path_2690" d="M1458.89,928.16c-12.03,19.93,100.3,35.89,127.09,38.04,48.14,2.16,73.79-11.88,73.79-32.7,0-26.82-38.04-53.96-92.74-31.96-54.7,22-98.2,12.13-108.13,26.62Z" style="fill:none; stroke:#00c4ff; stroke-miterlimit:10;"></path><path id="Path_2691" d="M1220.15,1630.32c-185.04-147.6-424.56-359.78-386.57-442.05,12.02-23.23,71.29,42.5,149.84,106.06,155.37,116.71,387.52,152.64,504.67,327,117.15,174.36-82.89,156.59-267.94,8.99Z" style="fill:none; stroke:#8fe248;"></path><path id="Path_2692" d="M1204.53,362.33c39.29,61.39-136.54,337.88-363.11,494.97-125.99,79.89-186.16,194.79-185.93,319.07,.35,192.74,131.79,401.21,127.45,579.47-3.74,154.06-194.23,419.45-363.25,419.52-154.44,.07-876.52-134.98-875.73-315.28,1.75-400.95,709.19-562.14,841.28-968.89,90.42-208.2,22.99-548.65,304.97-558.37,122.03-4.21,149.66,66.54,287.15,61.22,125.36-4.84,181-105.05,227.17-31.71Z" style="fill:none; stroke:#ff6c00; stroke-miterlimit:4; stroke-width:1px;"></path><path id="Path_2693" d="M2674.55,128.59s-159.03-110.37-419.71-110.34c-335.01-2.97-596.62,211.6-716.88,211.62-84.55,.01,14.9-308.29-202.03-251.89-216.92,56.41-266.71,106.63-332.86,109.3-66.15,2.67,139.52-149.32,139.52-149.32" style="fill:none; stroke:#530077; stroke-miterlimit:4; stroke-width:1px;"></path><path id="Path_2694" d="M502.67,978.25c-25.42,0-120.47,162.3-170.31,333.56-53.79,184.84-356.28,628.74-24.59,629.91,379.31,1.34,241.47-602.95,227.45-696.49-14.02-93.53,20.3-266.98-32.55-266.98Z" style="fill:none; stroke:#01c4ff;"></path><path id="Path_2695" d="M1096.47,1856.93c-103.83-62.6-158.85-221.17-193.39-221.17s61.71,201.56,77.99,285.86" style="fill:none; stroke:#707070;"></path><path id="Path_2717" d="M-60.89,1794.07c17.56-196.42,203.46-410.78,185.62-440.34-17.84-29.56-250.76,233.81-362.42,317.68" style="fill:none; stroke:#707070; stroke-miterlimit:4; stroke-width:1px;"></path><path id="Path_2696" d="M732.3-66.61c210.1,0-81.15,262.78,127.62,296.23,182.31,35.27,493.69-207.44,494.14-5.75,.46,201.69-109.35,364.3-38.26,364.3,147.28,0,376.09-294.8,789.08-294.8,515.95,0,575.64,573.17,573.13,869.24-3.01,355.28-218.24,607.29-552.51,607.29-302.92,0-609.62-374.63-938.6-476.45-328.99-101.82-350.66-261.91-381.81-261.49-31.15,.42-52.46,66.4-51.36,142.35,1.1,75.95,44.28,245.32,212.55,390.76,168.27,145.44,285.1,340.88,491.47,340.88s212.34-54.28,294.55-54.28,216.67,31.46,497.43,31.46,448.63-216.96,448.63-216.96" style="fill:none; stroke:#ffb100;"></path><path id="Path_2697" d="M458.59,1253.4c-2.92,.05-19.3,85.47-49.33,158.88-29.06,71.01-72.35,130.05-36.94,130.47,30.16,.36,63.52-19.38,77.32-71.24,19.02-71.47,14.72-218.2,8.95-218.12Z" style="fill:none; stroke:#ff00b1;"></path><path id="Path_2698" d="M212.91,456.05c34.74-2.8-26.8,69.51-63.27,163.57C81.04,796.52,23.08,969.99-48.63,967.54c-15.59-.53-33.74-11.49-33.93-51.22-.81-171.54,194.27-452.11,295.47-460.27Z" style="fill:none; stroke:#8fe248; stroke-miterlimit:4; stroke-width:1px;"></path><path id="Path_2699" d="M461.79,189.98c88.26-3.48-92.63,137.73-168.41,501.55-49.46,203.8-171.53,586.54-529.24,586.54-38.88-2.34-64.03-44.75-64.03-125.19,0-382.56,415.27-949.24,761.67-962.9Z" style="fill:none; stroke:#0071ff;"></path><path id="Path_2700" d="M-321.28,465.26C-93.97,404.35,29.61,180.42,276.05,62.55c246.44-117.87,288.86,46.7,361.19,66.08,72.34,19.38,1.48-269.93-191.7-269.93S254.92,66.32-198.96,194.1" style="fill:none; stroke:#00aa34;"></path></g></g>
			<!-- <g style="clip-path:url(#clippath);" filter="url(#turb)"><g id="Mask_Group_277"><path id="Path_2718" d="M386.01,782.39c0,202.05,596.86,521.48,1114.2,643.25,517.34,121.76,904.73,820.33,1357.26,820.33s861.64-377.11,861.64-1403.54c0-508.04-78.22-960.15-587.85-960.15S2179.88,193.31,1699.16,445.52c-480.72,252.21-1313.16,92.06-1313.16,336.87Z" style="fill:none; stroke:#0071ff; stroke-miterlimit:10; stroke-width:.95px;"/><path id="Path_2719" d="M1587.41,872.54c-71.09,252.06,330.2,300.85,601.83,498.92,276.28,204.87,860.75,212.43,860.75-259.64,0-511.48-408.19-697.48-687.35-506.1-279.16,191.39-724.54,140.71-775.22,266.82Z" style="fill:none; stroke:red; stroke-miterlimit:10; stroke-width:.95px;"/><path id="Path_2720" d="M504.78,45.46C478.06,244.67,228.25,469.14-68.75,670.44c-297,201.29-627.59,317.57-454.41-103.65C-412.64,314.28-592.98-205.37-148.67,18.03,161.96,231.97,546.24-212.53,504.78,45.46Z" style="fill:none; stroke:#00aa34; stroke-miterlimit:4; stroke-width:.95px;"/><path id="Path_2721" d="M149.1,344.9c.07,21.68-69.32,106.91-130.79,144.08-61.47,37.17-239.78,136.1-208.85,56.97,18.5-46.39,73.29-198.75,169.48-166.93,78.57,12.08,170.07-60.75,170.16-34.12Z" style="fill:none; stroke:#ff00b1; stroke-miterlimit:4; stroke-width:.95px;"/><path id="Path_2722" d="M1009.64,887.5c-120.66,194.18,856.01,460.87,1395.47,850.26,595.43,299.05,943.84-215.81,855.72-759.07-83.3-495.26-627.55-1002.31-1191.67-602.74-564.12,399.56-970.83,367.28-1059.52,511.56Z" style="fill:none; stroke:#1e1f21; stroke-miterlimit:10; stroke-width:.95px;"/><path id="Path_2723" d="M1954.21,973c-47.31,93.85,394.66,169.04,500.03,179.17,189.42,10.16,416.23,29.22,416.23-152.18,0-126.34-203.16-250.96-454.76-187.2s-351.85,21.26-461.5,160.21Z" style="fill:none; stroke:#00c4ff; stroke-miterlimit:10; stroke-width:.95px;"/><path id="Path_2724" d="M1157.17,2503.09c-447.58-348.51-971.34-950.67-868.79-1225.52,54.58-102.51,153.91,173.56,321.2,308.91,330.86,248.55,980.39,314.88,1229.87,686.2,249.48,371.31-234.7,578.93-682.28,230.42Z" style="fill:none; stroke:#8fe248; stroke-width:.95px;"/><path id="Path_2725" d="M1119.95-441.62c77.93,121.76-540.91,821.43-990.28,1133-249.89,158.46-397.56,446.14-397.11,692.64,.69,382.27,378.11,784.65,369.51,1138.21-16.26,668.27-501.97,843.03-837.2,843.17-306.32,.13-1738.47-267.72-1736.92-625.32,7.64-1754.14,1406.59-1114.95,1668.59-1921.69C-624.12,405.45-741.93-378.67-182.64-397.95,59.39-406.3,98.25-157.09,370.95-167.64c248.64-9.62,657.44-419.45,749-273.98Z" style="fill:none; stroke:#ff6c00; stroke-miterlimit:4; stroke-width:.95px;"/><path id="Path_2730" d="M-40.51-1094.85c416.71,0-156.7,621.17,257.36,687.52,361.6,69.96,1059.87-606.54,1060.78-206.51,.9,400.04-745.42,1026.69-423.08,1026.69,562.07,0,1008.19-793.71,1827.29-793.71,1023.33,0,1411.8,795.19,1403.94,1723.55-5.96,704.66-642.06,1039.72-1305.06,1039.72-600.8,0-1124.31-646.65-1776.82-848.6C351.39,1331.85,280.43,881.53,156.64,883.2c-123.79,1.67-263.93,157.9-260.86,370.63,3.07,212.73,65.15,448.57,398.89,737.04,333.74,288.47,694.3,826.65,1103.63,826.65s421.16-107.65,584.22-107.65,429.74,62.39,986.6,62.39,889.81-430.31,889.81-430.31" style="fill:none; stroke:#ffb100; stroke-width:.95px;"/></g></g> -->
		</svg>