<svg xmlns="http://www.w3.org/2000/svg" xmlns:xlink="http://www.w3.org/1999/xlink" x="0px" y="0px" viewBox="0 0 100 100" style="enable-background:new 0 0 100 100;" xml:space="preserve"><g>	<path d="M50,98.4C23.3,98.4,1.6,76.7,1.6,50S23.3,1.6,50,1.6S98.4,23.3,98.4,50S76.7,98.4,50,98.4z M50,4.2  C24.8,4.2,4.2,24.8,4.2,50c0,25.2,20.5,45.8,45.8,45.8S95.8,75.2,95.8,50C95.8,24.8,75.2,4.2,50,4.2z"></path>	<circle class="iconlist-circle" cx="50" cy="50" r="35.5"></circle>	<path class="iconlist-arrow" d="M45.2,35.5h14.5c0.9,0,1.6,0.7,1.6,1.6v14.5c0,0.9-0.7,1.6-1.6,1.6c-0.9,0-1.6-0.7-1.6-1.6V41L38.2,60.8  L36,58.5l19.8-19.8H45.2c-0.9,0-1.6-0.7-1.6-1.6C43.5,36.2,44.3,35.5,45.2,35.5z"></path></g></svg>