<svg xmlns="http://www.w3.org/2000/svg" viewBox="0 0 1440 320"><path fill="#f7f5ef" fill-opacity="1" d="M0,128L30,112C60,96,120,64,180,69.3C240,75,300,117,360,138.7C420,160,480,160,540,149.3C600,139,660,117,720,101.3C780,85,840,75,900,80C960,85,1020,107,1080,133.3C1140,160,1200,192,1260,192C1320,192,1380,160,1410,144L1440,128L1440,320L1410,320C1380,320,1320,320,1260,320C1200,320,1140,320,1080,320C1020,320,960,320,900,320C840,320,780,320,720,320C660,320,600,320,540,320C480,320,420,320,360,320C300,320,240,320,180,320C120,320,60,320,30,320L0,320Z"></path></svg>